<?xml version="1.0" standalone="no"?>
<!DOCTYPE svg PUBLIC "-//W3C//DTD SVG 20010904//EN"
 "http://www.w3.org/TR/2001/REC-SVG-20010904/DTD/svg10.dtd">
<svg version="1.0" xmlns="http://www.w3.org/2000/svg"
 width="120.000000pt" height="120.000000pt" viewBox="0 0 120.000000 120.000000"
 preserveAspectRatio="xMidYMid meet">

<g transform="translate(0.000000,120.000000) scale(0.100000,-0.100000)"
fill="#000000" stroke="none">
<path d="M790 866 c-6 -6 -10 -16 -10 -23 0 -7 -6 -13 -14 -13 -12 0 -12 -7 0
-47 8 -25 14 -69 14 -96 l0 -49 23 16 c12 9 34 21 50 27 15 6 27 15 27 21 0 5
5 6 10 3 6 -3 10 3 10 14 0 12 -4 21 -10 21 -5 0 -10 24 -10 53 0 28 -7 60
-14 70 -14 18 -59 20 -76 3z"/>
<path d="M631 594 c13 -17 26 -30 28 -27 3 2 -8 16 -24 31 l-28 27 24 -31z"/>
<path d="M514 498 l-29 -33 33 29 c30 28 37 36 29 36 -2 0 -16 -15 -33 -32z"/>
<path d="M281 443 c-53 -67 -33 -154 24 -107 20 16 20 16 0 9 -36 -12 -40 -10
-43 15 -3 27 33 90 56 98 11 3 12 0 2 -18 -10 -18 -9 -21 2 -18 7 3 14 14 16
26 5 32 -31 29 -57 -5z"/>
<path d="M781 443 c-13 -15 -19 -29 -13 -31 5 -1 8 -12 5 -22 -3 -11 -9 -18
-13 -15 -4 2 -5 -7 -2 -22 4 -22 6 -23 14 -9 9 16 11 16 29 0 11 -9 22 -14 26
-11 4 4 -2 14 -13 22 -18 14 -18 16 -1 26 24 14 22 32 -3 19 -18 -10 -19 -9
-8 15 6 14 15 25 19 25 5 0 6 7 3 15 -8 21 -15 19 -43 -12z"/>
<path d="M865 430 c3 -5 8 -10 11 -10 2 0 4 5 4 10 0 6 -5 10 -11 10 -5 0 -7
-4 -4 -10z"/>
<path d="M435 400 c-15 -16 -15 -22 -5 -35 10 -12 10 -15 -1 -15 -10 0 -10 -3
-2 -11 7 -7 19 -9 29 -5 16 6 15 8 -1 27 -18 19 -18 20 0 37 10 9 15 11 11 4
-6 -9 -1 -11 19 -8 21 4 25 2 21 -10 -20 -47 -19 -49 8 -24 20 18 25 20 20 7
-3 -9 -2 -17 4 -17 5 0 12 6 14 13 8 20 -2 36 -18 30 -8 -3 -14 0 -14 7 0 7
-7 10 -15 7 -8 -4 -17 -2 -20 3 -10 16 -31 12 -50 -10z"/>
<path d="M709 399 c-21 -21 -21 -23 -5 -35 16 -12 16 -13 -1 -17 -12 -3 -9 -5
10 -6 31 -1 36 13 10 28 -15 9 -16 12 -4 20 8 5 21 7 29 3 9 -3 13 0 10 8 -7
23 -26 22 -49 -1z"/>
<path d="M354 385 c-17 -26 -12 -45 11 -45 18 0 49 46 40 60 -11 17 -34 11
-51 -15z m22 -23 c-14 -14 -16 -14 -16 -1 0 8 6 21 12 27 9 9 14 10 17 1 2 -6
-4 -18 -13 -27z"/>
<path d="M634 384 c-20 -30 -54 -32 -54 -3 0 11 -4 18 -10 14 -5 -3 -6 -15 -1
-28 14 -38 103 -29 114 12 8 31 -30 35 -49 5z m26 -3 c0 -5 -6 -14 -14 -20
-12 -10 -13 -8 -9 8 5 21 23 30 23 12z"/>
<path d="M897 389 c-10 -38 -9 -41 17 -24 23 16 25 15 29 -7 3 -17 5 -15 6 10
1 32 -11 42 -25 20 -5 -8 -10 -6 -14 7 -6 17 -7 16 -13 -6z"/>
<path d="M846 378 c-10 -38 -6 -45 9 -18 17 29 18 40 6 40 -5 0 -11 -10 -15
-22z"/>
<path d="M366 285 c8 -20 94 -21 94 -2 0 18 -62 20 -72 4 -6 -9 -8 -9 -8 1 0
6 -4 12 -10 12 -5 0 -7 -7 -4 -15z"/>
<path d="M470 280 c0 -13 4 -19 12 -14 6 4 29 6 50 6 29 -1 37 1 32 11 -5 8
-2 7 9 -2 15 -12 17 -11 17 3 0 10 -9 16 -25 16 -14 0 -25 -6 -25 -12 0 -8 -3
-9 -8 -3 -4 6 -19 12 -34 13 -23 3 -28 -1 -28 -18z"/>
<path d="M606 285 c-4 -10 1 -15 14 -15 11 0 20 6 20 13 0 8 4 7 10 -3 8 -13
10 -12 10 3 0 22 -45 24 -54 2z"/>
<path d="M670 285 c0 -8 9 -15 20 -15 11 0 20 6 20 13 0 8 3 8 8 2 4 -6 16
-12 27 -12 11 -1 25 -2 30 -3 26 -6 45 2 45 16 0 14 -2 15 -17 3 -11 -10 -14
-10 -9 -1 4 6 3 12 -3 12 -5 0 -12 -6 -14 -12 -4 -10 -6 -10 -6 0 -1 19 -101
16 -101 -3z"/>
<path d="M830 285 c0 -8 5 -15 10 -15 6 0 10 7 10 15 0 8 -4 15 -10 15 -5 0
-10 -7 -10 -15z"/>
</g>
</svg>
