<svg width="25" height="24" viewBox="0 0 25 24" fill="none" xmlns="http://www.w3.org/2000/svg">
<g clip-path="url(#clip0_124_4)">
<path d="M2.28331 0.871973C2.05316 0.649807 1.75709 0.508411 1.46024 0.478889C1.16338 0.449368 0.890059 0.534139 0.700394 0.714554C0.510728 0.89497 0.420258 1.15625 0.448886 1.44092C0.477513 1.72559 0.622893 2.01032 0.853044 2.23249C11.6383 12.63 12.2374 12.9958 22.6076 23.0192C22.7213 23.1297 22.8526 23.2215 22.9939 23.2893C23.1352 23.3571 23.2837 23.3995 23.4309 23.4141C23.5781 23.4288 23.7209 23.4153 23.8513 23.3746C23.9817 23.3338 24.097 23.2665 24.1906 23.1767C24.285 23.0877 24.3561 22.9777 24.3996 22.853C24.4431 22.7284 24.4582 22.5916 24.444 22.4505C24.4298 22.3094 24.3866 22.1667 24.3169 22.0309C24.2472 21.895 24.1524 21.7685 24.0379 21.6587C13.4475 11.449 13.571 11.7822 2.28331 0.871973Z" fill="#F2EDF4"/>
<path d="M23.7994 2.30298C24.0301 2.08132 24.1825 1.79075 24.2231 1.49521C24.2637 1.19967 24.1892 0.923365 24.0161 0.727072C23.8429 0.530778 23.5852 0.430579 23.2996 0.448518C23.0141 0.466457 22.7241 0.601064 22.4935 0.822727C11.6991 11.2107 11.3111 11.7957 0.906034 21.783C0.791352 21.8925 0.694711 22.0203 0.621684 22.1589C0.548657 22.2976 0.500688 22.4444 0.480548 22.5909C0.460409 22.7374 0.468498 22.8807 0.504344 23.0125C0.54019 23.1443 0.603087 23.2621 0.689405 23.3589C0.774785 23.4567 0.882028 23.5318 1.00495 23.5799C1.12786 23.6281 1.26402 23.6483 1.40557 23.6394C1.54712 23.6305 1.69126 23.5927 1.82966 23.5281C1.96807 23.4636 2.09801 23.3735 2.21199 23.2633C12.8114 13.0629 12.4738 13.1739 23.7994 2.30298Z" fill="#F2EDF4"/>
</g>
<defs>
<clipPath id="clip0_124_4">
<rect width="25" height="24" fill="white"/>
</clipPath>
</defs>
</svg>
