<?xml version="1.0" encoding="UTF-8"?> <svg xmlns="http://www.w3.org/2000/svg" width="35" height="35" viewBox="0 0 35 35" fill="none"><path d="M35 17.5C35 20.9612 33.9736 24.3446 32.0507 27.2225C30.1278 30.1003 27.3947 32.3434 24.197 33.6679C20.9993 34.9924 17.4806 35.339 14.0859 34.6637C10.6913 33.9885 7.57306 32.3218 5.12564 29.8744C2.67822 27.427 1.01151 24.3087 0.336265 20.9141C-0.338976 17.5194 0.00758245 14.0007 1.33212 10.803C2.65665 7.60533 4.89967 4.8722 7.77753 2.94928C10.6554 1.02636 14.0388 0 17.5 0C22.1413 0 26.5925 1.84375 29.8744 5.12563C33.1563 8.40752 35 12.8587 35 17.5Z" fill="#604F8E"></path><path d="M23.8531 7.1344H11.1313C10.069 7.13523 9.05047 7.55758 8.29933 8.30872C7.54819 9.05985 7.12584 10.0784 7.12501 11.1406V23.8625C7.12378 24.3896 7.22647 24.9117 7.42721 25.399C7.62796 25.8863 7.92281 26.3293 8.29491 26.7025C8.667 27.0758 9.10904 27.372 9.59573 27.5743C10.0824 27.7765 10.6042 27.8809 11.1313 27.8813H23.8531C24.9157 27.8804 25.9345 27.4582 26.6862 26.7071C27.4378 25.9561 27.8609 24.9376 27.8625 23.875V11.1406C27.8609 10.0781 27.4378 9.05957 26.6862 8.30852C25.9345 7.55748 24.9157 7.13523 23.8531 7.1344ZM25.0031 9.52502H25.4563V13.0375H21.9531V9.52502H25.0031ZM14.5344 15.3813C14.8709 14.9097 15.3151 14.5254 15.8301 14.2602C16.3451 13.995 16.916 13.8567 17.4953 13.8567C18.0746 13.8567 18.6455 13.995 19.1605 14.2602C19.6755 14.5254 20.1198 14.9097 20.4563 15.3813C20.5344 15.4906 20.6063 15.6094 20.675 15.7281C20.9887 16.2835 21.1513 16.9113 21.1468 17.5491C21.1423 18.1868 20.9707 18.8123 20.6492 19.3631C20.3277 19.9139 19.8675 20.3709 19.3144 20.6885C18.7613 21.006 18.1347 21.1731 17.4969 21.1731C16.8591 21.1731 16.2325 21.006 15.6794 20.6885C15.1263 20.3709 14.6661 19.9139 14.3446 19.3631C14.0231 18.8123 13.8515 18.1868 13.847 17.5491C13.8425 16.9113 14.0051 16.2835 14.3188 15.7281C14.3829 15.6079 14.4549 15.492 14.5344 15.3813ZM25.8406 23.8688C25.8406 24.1298 25.7892 24.3882 25.6893 24.6294C25.5895 24.8705 25.4431 25.0896 25.2585 25.2741C25.074 25.4587 24.8549 25.6051 24.6137 25.705C24.3726 25.8049 24.1141 25.8563 23.8531 25.8563H11.1313C10.6044 25.8554 10.0993 25.6458 9.7268 25.2732C9.35425 24.9007 9.14459 24.3956 9.14376 23.8688V15.3813H12.2406C12.1623 15.5719 12.0955 15.767 12.0406 15.9656C11.8972 16.4666 11.8246 16.9852 11.825 17.5063C11.8296 18.3139 12.0067 19.1113 12.3444 19.8449C12.6822 20.5785 13.1728 21.2315 13.7834 21.7601C14.394 22.2888 15.1106 22.6808 15.885 22.91C16.6595 23.1392 17.474 23.2002 18.2739 23.0891C19.0739 22.9779 19.8409 22.6971 20.5235 22.2654C21.2061 21.8337 21.7886 21.2612 22.232 20.5861C22.6753 19.911 22.9693 19.149 23.0942 18.351C23.2191 17.5531 23.1721 16.7377 22.9563 15.9594C22.8989 15.7612 22.8311 15.5661 22.7531 15.375H25.85V23.8625L25.8406 23.8688Z" fill="white"></path></svg> 