<?xml version="1.0" encoding="UTF-8"?> <svg xmlns="http://www.w3.org/2000/svg" width="185" height="94" viewBox="0 0 185 94" fill="none"><path d="M110.015 49.0962C107.435 52.3073 108.878 55.6962 111.206 57.6812C113.534 59.6663 116.102 61.527 118.555 63.4461C119.134 63.8979 119.697 64.3675 120.267 64.8295C123.323 67.3223 123.657 71.559 121.513 74.1634C120.018 75.943 118.386 77.6389 116.626 79.2403C115.239 80.4652 113.729 81.588 112.113 82.5962C112.607 82.0885 113.067 81.5326 113.607 81.0503C115.365 79.484 117.215 77.9914 118.903 76.3744C119.793 75.4725 120.567 74.4939 121.21 73.4552C122.586 71.3711 122.502 67.1217 118.785 64.53C116.119 62.6206 113.573 60.5964 111.158 58.4656C109.011 56.6227 107.862 54.3533 108.344 51.7336C108.523 50.7589 109.187 49.8476 109.633 48.9083L110.015 49.0962Z" fill="white" stroke="white" stroke-width="0.606308" stroke-miterlimit="10"></path><path d="M96.5972 73.7268C95.715 70.9548 94.8783 68.1726 93.9416 65.4159C93.0048 62.6591 91.9438 59.9176 90.9858 57.1557C90.7748 56.5174 90.6657 55.8584 90.6614 55.196C90.6129 52.6017 90.5998 50.0066 90.622 47.4106C90.6596 46.2974 90.2591 45.2048 89.4822 44.301C89.1517 43.9177 88.8243 43.5394 88.4908 43.146C86.011 40.308 86.6143 36.6501 90.0066 34.6015C90.8403 34.0938 91.9104 33.8654 92.8775 33.5176C94.1204 33.0509 95.3913 32.6382 96.6851 32.2814C95.7938 32.7002 94.942 33.2003 94.0052 33.5176C91.9892 34.2004 90.0642 34.9112 88.7364 36.4825C87.4086 38.0538 87.2904 40.407 88.5636 42.0138C88.8668 42.4098 89.1881 42.8058 89.5276 43.1866C90.7925 44.5864 91.427 46.315 91.3193 48.068C91.2586 49.845 91.389 51.6219 91.289 53.3836C91.1586 55.6377 91.8286 57.7523 92.5319 59.8922C93.8718 63.9715 95.1087 68.0762 96.3516 72.1783C96.5062 72.686 96.4456 73.2445 96.485 73.7801L96.5972 73.7268Z" fill="white" stroke="white" stroke-width="0.606308" stroke-miterlimit="10"></path><path d="M104.676 71.5538C103.339 73.3942 101.463 74.7599 99.5226 76.0723C94.5266 79.4662 89.7762 83.0708 85.6806 87.2415C84.374 88.5742 83.3008 89.978 83.0431 91.7422C82.8097 90.4095 83.5676 89.3256 84.2558 88.2569C85.9837 85.6118 88.4848 83.482 91.101 81.4767C93.9961 79.2606 97.064 77.2019 100.029 75.0493C101.605 73.9247 103.112 72.7418 104.676 71.5538Z" fill="white" stroke="white" stroke-width="0.606308" stroke-miterlimit="10"></path><path d="M130.147 12.5118C132.478 13.0754 134.509 14.1923 136.283 15.5301C137.399 16.3754 137.047 17.6801 136.347 18.7209C135.615 19.8282 134.784 20.8872 133.861 21.8889C131.842 24.0517 130.405 26.4581 129.062 28.9509C127.413 32.0123 125.288 35.3783 122.914 36.6373C123.738 35.6956 124.581 34.8173 125.315 33.878C126.055 32.9251 126.735 31.9405 127.352 30.9283C127.885 30.0561 128.348 29.1556 128.74 28.2325C130.02 25.2295 132.378 22.7951 134.537 20.2338C135.214 19.4361 135.781 18.5769 136.228 17.6725C136.78 16.5226 136.556 15.8956 135.319 15.2128C133.645 14.2583 131.869 13.4079 130.147 12.5118Z" fill="white" stroke="white" stroke-width="0.606308" stroke-miterlimit="10"></path><path d="M99.8623 21.5869C100.717 20.0638 101.481 18.4824 102.445 16.9999C105.007 13.0551 107.656 9.15098 110.27 5.22653C111.619 3.19576 113.692 1.99761 116.351 1.44423C117.31 1.2008 118.3 1.05172 119.301 1C117.742 1.45185 116.196 1.94177 114.62 2.34284C113.418 2.65186 112.389 3.31454 111.725 4.20861C110.706 5.50322 109.678 6.7953 108.778 8.14576C105.804 12.6211 102.885 17.1192 99.9442 21.5996L99.8623 21.5869Z" fill="white" stroke="white" stroke-width="0.606308" stroke-miterlimit="10"></path><path d="M131.645 50.0021C131.757 49.7102 131.851 49.4107 131.981 49.1238C133.424 45.9736 133.391 42.8614 131.512 39.8458C130.253 37.8328 130.299 35.9975 131.836 34.0479C132.542 33.1518 132.724 31.9334 132.997 30.8342C133.203 30.0143 133.167 29.1538 133.333 28.3212C133.497 30.8596 133.528 33.3321 131.484 35.4923C130.723 36.297 130.781 37.3505 131.211 38.31C131.642 39.2695 132.251 40.2113 132.657 41.1962C133.906 44.2373 133.806 47.2098 131.645 50.0021Z" fill="white" stroke="white" stroke-width="0.606308" stroke-miterlimit="10"></path><path d="M112.913 14.7178C111.285 15.9464 109.6 17.1268 108.063 18.4214C107.218 19.1888 106.461 20.0208 105.801 20.9065C105.534 21.2061 105.416 21.5808 105.473 21.9516C105.529 22.3225 105.756 22.6604 106.104 22.8941C107.59 23.9554 109.191 24.8971 110.888 25.7068C111.837 26.1332 113.116 26.0393 113.998 26.151C112.525 26.5952 110.846 26.2627 109.369 25.4732C108.06 24.7266 106.827 23.8903 105.683 22.9728C104.958 22.4245 104.949 21.663 105.38 20.9598C105.703 20.3522 106.126 19.7857 106.638 19.2768C108.399 17.6675 110.227 16.1139 112.04 14.5452C112.177 14.454 112.328 14.3789 112.489 14.3218L112.913 14.7178Z" fill="white" stroke="white" stroke-width="0.606308" stroke-miterlimit="10"></path><path d="M116.672 90.3867C114.932 88.6478 114.213 85.226 115.014 82.8271C114.956 85.4392 115.341 87.9828 116.672 90.3867Z" fill="white" stroke="white" stroke-width="0.606308" stroke-miterlimit="10"></path><path d="M129.226 17.7055C129.15 17.9771 129.168 18.3121 128.983 18.5127C126.985 20.6831 124.954 22.8281 122.92 24.9832C122.874 25.0314 122.799 25.0568 122.574 24.9832L129.053 17.6572L129.226 17.7055Z" fill="white" stroke="white" stroke-width="0.606308" stroke-miterlimit="10"></path><path d="M15.1055 62.8711C15.4609 62.8711 15.6387 63.0898 15.6387 63.5273C15.6387 63.9831 15.1328 64.6348 14.1211 65.4824C13.1094 66.3301 11.9382 67.0046 10.6074 67.5059C9.28581 68.0072 8.07357 68.2578 6.9707 68.2578C5.35742 68.2578 3.88542 67.7246 2.55469 66.6582C1.23307 65.5918 0.572266 64.0469 0.572266 62.0234C0.572266 58.332 2.1582 54.7409 5.33008 51.25C8.51107 47.75 11.5736 46 14.5176 46C15.6204 46 16.5 46.3418 17.1562 47.0254C17.8216 47.6999 18.1543 48.4883 18.1543 49.3906C18.1543 50.2292 18.1042 50.89 18.0039 51.373C17.9128 51.8561 17.6257 52.2663 17.1426 52.6035C16.6595 52.9316 16.2721 53.0957 15.9805 53.0957C15.7708 53.0957 15.5885 53.0046 15.4336 52.8223C15.2786 52.64 15.2012 52.3939 15.2012 52.084C15.2012 51.8743 15.2786 51.4368 15.4336 50.7715C15.5885 50.1152 15.666 49.6276 15.666 49.3086C15.666 48.3789 15.2604 47.9141 14.4492 47.9141C13.1914 47.9141 11.6328 48.6387 9.77344 50.0879C7.92318 51.528 6.35091 53.36 5.05664 55.584C3.76237 57.7988 3.11523 59.8405 3.11523 61.709C3.11523 62.9577 3.48438 63.9967 4.22266 64.8262C4.97005 65.6465 6.0319 66.0566 7.4082 66.0566C8.20117 66.0566 9.16276 65.8607 10.293 65.4688C11.4323 65.0677 12.4759 64.5345 13.4238 63.8691C14.3717 63.2038 14.9323 62.8711 15.1055 62.8711Z" fill="white"></path><path d="M23.8418 67.6836C22.5931 67.6836 21.5632 67.2096 20.752 66.2617C19.9408 65.3138 19.5352 64.1426 19.5352 62.748C19.5352 60.3965 20.3236 58.0814 21.9004 55.8027C23.4863 53.515 25.3822 52.3711 27.5879 52.3711C29.0462 52.3711 30.2266 52.9316 31.1289 54.0527C32.0404 55.1738 32.4961 56.5091 32.4961 58.0586C32.4961 60.4284 31.5573 62.625 29.6797 64.6484C27.8112 66.6719 25.8652 67.6836 23.8418 67.6836ZM21.9414 62.3926C21.9414 63.3132 22.1328 64.0651 22.5156 64.6484C22.9076 65.2318 23.4225 65.5234 24.0605 65.5234C25.4186 65.5234 26.7812 64.7806 28.1484 63.2949C29.5156 61.8001 30.1992 60.1413 30.1992 58.3184C30.1992 57.1973 29.9349 56.2904 29.4062 55.5977C28.8867 54.8958 28.1849 54.5449 27.3008 54.5449C25.8333 54.5449 24.571 55.4473 23.5137 57.252C22.4655 59.0475 21.9414 60.7611 21.9414 62.3926Z" fill="white"></path><path d="M42.5586 63.8691C42.5586 63.2767 41.8294 62.6022 40.3711 61.8457C38.5208 60.8978 37.2676 60.1413 36.6113 59.5762C35.9642 59.002 35.6406 58.3639 35.6406 57.6621C35.6406 55.8483 36.5475 54.3444 38.3613 53.1504C40.1842 51.9564 41.6699 51.3594 42.8184 51.3594C43.5566 51.3594 44.0898 51.487 44.418 51.7422C44.7552 51.9974 44.9238 52.4395 44.9238 53.0684C44.9238 53.3509 44.8008 53.5924 44.5547 53.793C44.3177 53.9935 44.1309 54.0938 43.9941 54.0938C43.8939 54.0938 43.6979 54.0254 43.4062 53.8887C43.1146 53.7611 42.9232 53.6973 42.832 53.6973C42.3763 53.6973 41.4512 54.0299 40.0566 54.6953C38.6621 55.3607 37.9648 56.1126 37.9648 56.9512C37.9648 57.4616 38.2109 57.9264 38.7031 58.3457C39.1953 58.7559 40.0794 59.2617 41.3555 59.8633C42.3854 60.3555 43.2057 60.8841 43.8164 61.4492C44.4362 62.0052 44.7461 62.6615 44.7461 63.418C44.7461 64.8125 43.7845 65.9062 41.8613 66.6992C39.9382 67.4831 38.1016 67.875 36.3516 67.875C34.875 67.875 34.1367 67.3737 34.1367 66.3711C34.1367 66.0247 34.3008 65.7695 34.6289 65.6055C34.9661 65.4414 35.3034 65.3594 35.6406 65.3594C35.7773 65.3594 36.0371 65.4049 36.4199 65.4961C36.7936 65.5872 37.0397 65.6328 37.1582 65.6328C38.1699 65.6328 39.2546 65.4642 40.4121 65.127C41.5697 64.7897 42.2852 64.3704 42.5586 63.8691Z" fill="white"></path><path d="M57.8984 56.1855C57.0508 56.2038 55.237 58.7148 52.457 63.7188C51.5182 65.4049 50.9714 66.3255 50.8164 66.4805C50.6615 66.6263 50.3743 66.7585 49.9551 66.877C49.5449 66.9954 49.2031 67.0547 48.9297 67.0547C48.319 67.0547 48.0137 65.8652 48.0137 63.4863C48.0137 62.1465 48.3008 59.722 48.875 56.2129C49.112 54.791 49.2305 53.7747 49.2305 53.1641C49.2305 52.5625 49.4993 52.2617 50.0371 52.2617C51.0488 52.2617 51.5547 52.9909 51.5547 54.4492C51.5547 55.1328 51.3861 56.4727 51.0488 58.4688C50.6569 60.7474 50.4564 62.1328 50.4473 62.625C51.0124 62.0781 51.8418 60.8796 52.9355 59.0293C54.485 56.4954 55.6243 54.8913 56.3535 54.2168C57.0918 53.5332 57.8529 53.1914 58.6367 53.1914C59.2292 53.1914 59.6986 53.5879 60.0449 54.3809C60.4004 55.1738 60.6146 57.0651 60.6875 60.0547C60.7057 60.8021 60.7741 61.3581 60.8926 61.7227C61.0111 62.0872 61.0977 62.2695 61.1523 62.2695C61.5807 62.2695 62.5104 60.8112 63.9414 57.8945C64.707 56.3542 65.4499 55.1829 66.1699 54.3809C66.8991 53.5788 67.7057 53.1777 68.5898 53.1777C69.3281 53.1777 69.8659 53.5605 70.2031 54.3262C70.5404 55.0827 70.7819 56.2083 70.9277 57.7031C71.0645 59.2161 71.2741 60.6016 71.5566 61.8594C71.8483 63.1172 72.377 63.9238 73.1426 64.2793C73.6621 64.5254 73.9219 64.8125 73.9219 65.1406C73.9219 65.4596 73.7031 65.7878 73.2656 66.125C72.8281 66.4622 72.4271 66.6309 72.0625 66.6309C71.3333 66.6309 70.6816 66.1842 70.1074 65.291C69.5332 64.3978 69.1003 62.4655 68.8086 59.4941C68.681 58.3001 68.5579 57.4525 68.4395 56.9512C68.321 56.4499 68.1341 56.1992 67.8789 56.1992C67.4961 56.1992 67.0404 56.5638 66.5117 57.293C65.9922 58.0221 65.1491 59.5033 63.9824 61.7363C63.071 63.4772 62.3783 64.6393 61.9043 65.2227C61.4395 65.7969 60.9883 66.084 60.5508 66.084C60.1589 66.084 59.8079 65.929 59.498 65.6191C59.1882 65.3001 58.9922 64.9219 58.9102 64.4844C58.8281 64.0378 58.7415 62.9486 58.6504 61.2168C58.5137 58.3366 58.263 56.6595 57.8984 56.1855Z" fill="white"></path><path d="M80.3613 67.6836C79.1126 67.6836 78.0827 67.2096 77.2715 66.2617C76.4603 65.3138 76.0547 64.1426 76.0547 62.748C76.0547 60.3965 76.8431 58.0814 78.4199 55.8027C80.0059 53.515 81.9017 52.3711 84.1074 52.3711C85.5658 52.3711 86.7461 52.9316 87.6484 54.0527C88.5599 55.1738 89.0156 56.5091 89.0156 58.0586C89.0156 60.4284 88.0768 62.625 86.1992 64.6484C84.3307 66.6719 82.3848 67.6836 80.3613 67.6836ZM78.4609 62.3926C78.4609 63.3132 78.6523 64.0651 79.0352 64.6484C79.4271 65.2318 79.9421 65.5234 80.5801 65.5234C81.9382 65.5234 83.3008 64.7806 84.668 63.2949C86.0352 61.8001 86.7188 60.1413 86.7188 58.3184C86.7188 57.1973 86.4544 56.2904 85.9258 55.5977C85.4062 54.8958 84.7044 54.5449 83.8203 54.5449C82.3529 54.5449 81.0905 55.4473 80.0332 57.252C78.985 59.0475 78.4609 60.7611 78.4609 62.3926Z" fill="white"></path><path d="M139.301 51.7422C139.301 50.5299 138.986 49.7917 138.357 49.5273C137.729 49.2539 136.945 49.1172 136.006 49.1172C134.074 49.1172 132.319 49.5 130.742 50.2656C129.174 51.0221 128.391 51.9336 128.391 53C128.391 53.7656 128.737 54.4355 129.43 55.0098C130.132 55.5749 131.654 56.1992 133.996 56.8828C136.266 57.5391 137.879 58.2181 138.836 58.9199C139.802 59.6126 140.285 60.4512 140.285 61.4355C140.285 62.429 139.615 63.5046 138.275 64.6621C136.936 65.8105 135.318 66.6855 133.422 67.2871C131.535 67.8887 129.931 68.1895 128.609 68.1895C127.507 68.1895 126.668 68.0573 126.094 67.793C125.529 67.5378 125.246 67.2142 125.246 66.8223C125.246 66.5488 125.328 66.2161 125.492 65.8242C125.665 65.4232 125.839 65.2227 126.012 65.2227C126.194 65.2227 126.381 65.2546 126.572 65.3184C127.548 65.6829 128.514 65.8652 129.471 65.8652C131.193 65.8652 133.021 65.3639 134.953 64.3613C136.885 63.3496 137.852 62.4062 137.852 61.5312C137.852 61.1576 137.555 60.8021 136.963 60.4648C136.38 60.1185 134.894 59.5671 132.506 58.8105C129.544 57.8717 127.721 56.9603 127.037 56.0762C126.363 55.1829 126.025 54.2441 126.025 53.2598C126.025 51.3639 127.115 49.8372 129.293 48.6797C131.471 47.513 133.75 46.9297 136.129 46.9297C137.706 46.9297 138.918 47.1986 139.766 47.7363C140.613 48.265 141.037 48.8529 141.037 49.5C141.037 49.8099 140.941 50.2611 140.75 50.8535C140.559 51.446 140.076 51.7422 139.301 51.7422Z" fill="white"></path><path d="M146.369 60.6152C146.488 60.4603 147.303 59.7266 148.816 58.4141C150.247 57.1654 151.245 56.2585 151.811 55.6934C153.916 53.5879 155.429 52.5352 156.35 52.5352C157.061 52.5352 157.416 52.877 157.416 53.5605C157.416 54.3353 157.065 54.9049 156.363 55.2695C155.452 55.7344 154.235 56.5091 152.713 57.5938C151.191 58.6693 150.43 59.4303 150.43 59.877C150.43 60.0592 150.967 60.7428 152.043 61.9277C153.118 63.1035 154.048 63.974 154.832 64.5391C155.616 65.0951 156.377 65.373 157.115 65.373L157.566 65.3594C157.885 65.3411 158.045 65.4824 158.045 65.7832C158.045 66.1842 157.794 66.5898 157.293 67C156.792 67.4193 156.131 67.6289 155.311 67.6289C154.782 67.6289 154.244 67.4421 153.697 67.0684C153.16 66.7038 152.198 65.7103 150.812 64.0879C149.71 62.748 149.021 61.9505 148.748 61.6953C148.475 61.431 148.247 61.2988 148.064 61.2988C147.964 61.2988 147.645 61.5358 147.107 62.0098C146.57 62.4837 146.273 62.8438 146.219 63.0898C146.173 63.3359 146.15 64.2747 146.15 65.9062V66.5488C146.15 66.8861 145.991 67.1868 145.672 67.4512C145.353 67.7155 145.007 67.8477 144.633 67.8477C144.25 67.8477 143.949 67.7337 143.73 67.5059C143.512 67.2871 143.402 67.0592 143.402 66.8223C143.402 66.4941 143.525 65.7194 143.771 64.498C144.118 62.7389 144.437 60.3828 144.729 57.4297C145.403 50.457 145.923 46.515 146.287 45.6035C146.652 44.6829 147.171 44.2227 147.846 44.2227C148.083 44.2227 148.279 44.3503 148.434 44.6055C148.598 44.8607 148.68 45.1888 148.68 45.5898C148.68 46.319 148.365 48.2559 147.736 51.4004C147.107 54.554 146.652 57.6257 146.369 60.6152Z" fill="white"></path><path d="M164.689 48.6934C164.498 48.6934 164.352 48.4883 164.252 48.0781C164.215 47.9505 164.165 47.8092 164.102 47.6543C163.855 47.0618 163.732 46.5469 163.732 46.1094C163.732 45.7448 163.947 45.3757 164.375 45.002C164.812 44.6191 165.296 44.4277 165.824 44.4277C166.089 44.4277 166.385 44.5326 166.713 44.7422C167.041 44.9427 167.205 45.1387 167.205 45.3301C167.205 45.6309 167.091 46.1413 166.863 46.8613C166.645 47.5814 166.289 48.069 165.797 48.3242C165.314 48.5703 164.945 48.6934 164.689 48.6934ZM162.898 63.9648C162.898 64.6576 162.994 65.4368 163.186 66.3027C163.222 66.4668 163.24 66.6035 163.24 66.7129C163.24 66.877 163.09 67.0866 162.789 67.3418C162.488 67.6061 162.169 67.7383 161.832 67.7383C160.948 67.7383 160.506 66.9271 160.506 65.3047C160.506 63.6276 160.852 60.9753 161.545 57.3477C161.782 56.0807 161.9 55.3014 161.9 55.0098C161.9 54.4355 162.005 53.9479 162.215 53.5469C162.424 53.1367 162.721 52.9316 163.104 52.9316C163.568 52.9316 163.933 53.0456 164.197 53.2734C164.471 53.4922 164.607 53.7383 164.607 54.0117C164.607 54.2852 164.544 54.6452 164.416 55.0918C163.732 57.498 163.309 59.2207 163.145 60.2598C162.98 61.2988 162.898 62.5339 162.898 63.9648Z" fill="white"></path><path d="M177.691 56.4863C177.217 56.4863 176.698 56.7962 176.133 57.416C175.577 58.0358 174.725 59.4258 173.576 61.5859C172.063 64.4844 171.083 66.1341 170.637 66.5352C170.199 66.9362 169.835 67.1367 169.543 67.1367C168.467 67.1367 167.93 66.6172 167.93 65.5781C167.93 65.1406 168.003 64.5208 168.148 63.7188C168.65 60.9661 168.9 58.0632 168.9 55.0098C168.9 54.6634 169.046 54.2806 169.338 53.8613C169.639 53.4329 169.921 53.2188 170.186 53.2188C170.66 53.2188 170.997 53.3646 171.197 53.6562C171.398 53.9479 171.498 54.5358 171.498 55.4199C171.498 56.3405 171.225 58.2363 170.678 61.1074C170.495 62.0553 170.404 62.6569 170.404 62.9121C170.404 63.0579 170.441 63.1309 170.514 63.1309C170.65 63.1309 171.284 62.0417 172.414 59.8633C173.553 57.6484 174.551 56.0898 175.408 55.1875C176.265 54.2852 177.208 53.834 178.238 53.834C179.059 53.834 179.724 54.2077 180.234 54.9551C180.754 55.7025 181.132 57.0651 181.369 59.043C181.624 61.2943 181.852 62.6979 182.053 63.2539C182.262 63.8008 182.59 64.0742 183.037 64.0742C183.32 64.0742 183.675 63.974 184.104 63.7734C184.176 63.737 184.231 63.7188 184.268 63.7188C184.66 63.7188 184.855 63.9466 184.855 64.4023C184.855 64.8034 184.587 65.2318 184.049 65.6875C183.511 66.1341 182.864 66.3574 182.107 66.3574C181.333 66.3574 180.731 66.0521 180.303 65.4414C179.883 64.8216 179.551 63.1764 179.305 60.5059C179.049 57.8262 178.512 56.4863 177.691 56.4863Z" fill="white"></path></svg> 