<?xml version="1.0" encoding="UTF-8"?> <svg xmlns="http://www.w3.org/2000/svg" width="35" height="35" viewBox="0 0 35 35" fill="none"><path d="M35 17.5C35 20.9612 33.9736 24.3446 32.0507 27.2225C30.1278 30.1003 27.3947 32.3434 24.197 33.6679C20.9993 34.9924 17.4806 35.339 14.0859 34.6637C10.6913 33.9885 7.57306 32.3218 5.12564 29.8744C2.67822 27.427 1.01151 24.3087 0.336267 20.9141C-0.338975 17.5194 0.00757903 14.0007 1.33211 10.803C2.65665 7.60533 4.89966 4.87221 7.77752 2.94929C10.6554 1.02636 14.0388 0 17.5 0C22.1413 0 26.5925 1.84374 29.8744 5.12563C33.1562 8.40751 35 12.8587 35 17.5Z" fill="#604F8E"></path><path d="M14.4247 6.02771C14.3765 6.04553 14.0147 6.24517 13.6226 6.46975C13.2304 6.69612 12.7207 6.98844 12.4907 7.11856C11.9542 7.42336 11.8669 7.50892 11.8098 7.78519C11.7688 7.97413 11.7831 8.00622 12.2964 8.88139C13.152 10.343 14.9059 13.2537 14.979 13.3375C15.0753 13.4427 15.2143 13.5264 15.3587 13.5639C15.5601 13.6138 15.5672 13.612 16.5173 13.0666C16.9843 12.7974 17.5029 12.4997 17.6723 12.4053C18.0929 12.1664 18.2034 12.0417 18.2516 11.7458C18.289 11.5158 18.273 11.4766 17.8755 10.8171C16.0128 7.73529 15.1056 6.24338 15.0592 6.18813C14.9291 6.03306 14.6225 5.95463 14.4247 6.02771Z" fill="white"></path><path d="M11.1232 8.41963C10.1785 8.69056 9.53325 9.3768 9.21776 10.4498C8.70976 12.1734 9.10011 14.8881 10.289 17.9022C11.4921 20.9502 13.312 23.8448 15.2977 25.8679C16.9981 27.5987 18.6201 28.5523 20.2439 28.7769C20.4703 28.8089 21.1494 28.8089 21.3579 28.7786C21.7465 28.7198 22.0923 28.6271 22.4345 28.4917C22.5878 28.4293 22.75 28.3562 22.7714 28.3384C22.7803 28.3312 21.2171 25.6095 21.0335 25.3171C20.8464 25.0177 20.4792 24.4188 19.9106 23.4812C19.6076 22.9839 19.6611 23.0231 19.3883 23.0909C19.1602 23.1461 18.6861 23.1515 18.4169 23.0998C17.8269 22.9911 17.1496 22.6524 16.5454 22.1676C16.2976 21.9697 15.8377 21.5206 15.606 21.2532C15.2549 20.8468 14.8984 20.3513 14.6025 19.854C14.4225 19.551 14.3334 19.3727 14.2139 19.0697C13.9145 18.3104 13.7291 17.6099 13.6382 16.8951C13.5936 16.5422 13.5972 15.9326 13.6471 15.6082C13.7416 14.979 13.9644 14.455 14.3191 14.0218C14.3726 13.9577 14.4118 13.9006 14.4082 13.8935C14.4047 13.8881 14.3084 13.7242 14.1943 13.5299C13.8949 13.0201 13.4564 12.2251 12.7399 10.8972C11.8629 9.26807 11.3567 8.36615 11.3228 8.36794C11.3139 8.36794 11.223 8.39111 11.1232 8.41963Z" fill="white"></path><path d="M22.7038 20.4582C22.67 20.4725 22.2814 20.69 21.8394 20.9449C21.3991 21.1997 20.8893 21.4903 20.7075 21.5919C20.3528 21.7933 20.2298 21.8931 20.1585 22.0393C20.0676 22.2264 20.073 22.4225 20.171 22.5972C21.4205 24.8145 23.1637 27.8144 23.2617 27.916C23.2938 27.9481 23.3705 28.0015 23.4346 28.0318C23.5398 28.0835 23.5648 28.0889 23.7198 28.0889H23.8909L24.1744 27.9249C24.3312 27.8358 24.8606 27.5327 25.3508 27.2529C25.8409 26.9713 26.2634 26.72 26.2919 26.6932C26.365 26.6255 26.4274 26.5239 26.4666 26.408C26.5058 26.2957 26.5129 26.0533 26.479 25.9571C26.4684 25.9232 26.3008 25.6273 26.1083 25.2994C25.914 24.9714 25.39 24.073 24.9408 23.303C23.7715 21.2978 23.4186 20.7007 23.3598 20.6258C23.3277 20.5848 23.2617 20.5367 23.1887 20.501C23.0871 20.4511 23.0496 20.4422 22.9177 20.4386C22.8233 20.4351 22.7431 20.444 22.7038 20.4582Z" fill="white"></path></svg> 