<?xml version="1.0" encoding="UTF-8"?> <svg xmlns="http://www.w3.org/2000/svg" width="35" height="35" viewBox="0 0 35 35" fill="none"><path d="M35 17.5C35 20.9612 33.9736 24.3446 32.0507 27.2225C30.1278 30.1003 27.3947 32.3434 24.197 33.6679C20.9993 34.9924 17.4806 35.339 14.0859 34.6637C10.6913 33.9885 7.57306 32.3218 5.12564 29.8744C2.67822 27.427 1.01151 24.3087 0.336267 20.9141C-0.338975 17.5194 0.00757903 14.0007 1.33211 10.803C2.65665 7.60533 4.89966 4.87221 7.77752 2.94929C10.6554 1.02636 14.0388 0 17.5 0C22.1413 0 26.5925 1.84374 29.8744 5.12563C33.1562 8.40751 35 12.8587 35 17.5Z" fill="#604F8E"></path><path d="M27.6037 12.7375C27.3193 12.5 26.2256 12.5094 25.1412 12.5156C24.0568 12.5219 22.9318 12.5156 22.6756 12.6281C22.4193 12.7406 21.9099 13.9969 21.2224 15.3157C20.4412 16.8032 19.4787 18.2344 18.8693 18.225C18.0818 18.225 18.2631 15.7656 18.31 13.9719C18.3412 12.7813 18.1475 12.4094 17.9756 12.2906C17.4782 12.0443 16.9538 11.8566 16.4131 11.7313C16.4131 11.7313 12.9756 11.4719 12.4943 12.9625C13.1475 13.05 14.2725 12.8407 13.8381 17.4438C13.8193 17.6657 13.3131 19.5625 11.7131 16.9969C11.3162 16.3719 9.7787 12.5313 9.25057 12.5156C7.47245 12.4656 5.72872 12.3938 5.10684 12.7375C4.53809 13.05 5.87559 15.7031 8.12871 19.2344C9.97246 22.1219 11.9256 24.3781 15.2943 24.9469C15.9193 25.0094 17.5818 25.0844 18.1068 24.8344C18.4631 24.6594 18.0287 22.1563 19.2256 21.9219C19.7631 21.8188 21.8068 24.5219 22.585 24.8344C23.0537 25.0219 24.0943 25.0907 25.16 25.0594C26.31 25.0219 27.6068 25.1594 27.7318 24.3875C28.0131 22.6594 24.2631 20.4125 24.1506 19.3438C24.0693 18.5813 25.5225 17.1563 26.2787 16.0969C27.1787 14.7938 28.1756 13.2219 27.6037 12.7375Z" fill="white"></path></svg> 