<?xml version="1.0" encoding="UTF-8"?> <svg xmlns="http://www.w3.org/2000/svg" width="35" height="35" viewBox="0 0 35 35" fill="none"><path d="M35 17.5C35 20.9612 33.9736 24.3446 32.0507 27.2225C30.1278 30.1003 27.3947 32.3433 24.197 33.6679C20.9993 34.9924 17.4806 35.339 14.0859 34.6637C10.6913 33.9885 7.57306 32.3218 5.12564 29.8744C2.67822 27.4269 1.01151 24.3087 0.336265 20.9141C-0.338976 17.5194 0.00758245 14.0007 1.33212 10.803C2.65665 7.60533 4.89967 4.87221 7.77753 2.94928C10.6554 1.02636 14.0388 0 17.5 0C22.1413 0 26.5925 1.84374 29.8744 5.12563C33.1563 8.40752 35 12.8587 35 17.5Z" fill="#604F8E"></path><path d="M27.8564 16.228C27.7706 13.603 26.6736 11.1128 24.7948 9.27762C22.916 7.44243 20.4007 6.40428 17.7745 6.38007C15.1482 6.35587 12.6142 7.34749 10.7019 9.14773C8.78958 10.948 7.64693 13.4176 7.5127 16.0405C7.5127 16.1905 7.5127 16.3374 7.5127 16.4874C7.5111 18.3254 8.01721 20.1281 8.9752 21.6968L7.1377 27.1186L12.7627 25.328C14.3083 26.1757 16.0472 26.6083 17.8098 26.5835C19.5724 26.5586 21.2985 26.0773 22.8196 25.1864C24.3407 24.2956 25.6048 23.0256 26.4887 21.5004C27.3726 19.9752 27.846 18.247 27.8627 16.4843C27.8627 16.3999 27.8564 16.3155 27.8564 16.228ZM17.6814 24.978C16.008 24.9795 14.3707 24.4906 12.9721 23.5718L9.68457 24.6186L10.7533 21.4655C9.6935 20.0211 9.12303 18.2758 9.12519 16.4843C9.12455 16.2098 9.13811 15.9355 9.16582 15.6624C9.38791 13.5438 10.3917 11.5841 11.9812 10.166C13.5706 8.74783 15.6316 7.97307 17.7617 7.99298C19.8918 8.01289 21.9379 8.82606 23.5006 10.2737C25.0633 11.7213 26.0303 13.6994 26.2127 15.8218C26.2127 16.0405 26.2408 16.2624 26.2408 16.4843C26.2292 18.7448 25.3216 20.9084 23.7171 22.5007C22.1125 24.0929 19.942 24.9838 17.6814 24.978Z" fill="white"></path><path d="M22.3439 18.5249C22.0939 18.3999 20.8658 17.7999 20.6377 17.7187C20.4096 17.6374 20.2439 17.5937 20.0752 17.8406C19.9064 18.0874 19.4314 18.6468 19.2877 18.8124C19.1439 18.978 18.9939 18.9999 18.747 18.8749C18.0114 18.5808 17.3326 18.161 16.7408 17.6343C16.1951 17.1342 15.7265 16.556 15.3502 15.9187C15.2064 15.6718 15.3502 15.5374 15.4595 15.4156C15.5689 15.2937 15.7095 15.1249 15.8345 14.9812C15.8672 14.9435 15.8974 14.9038 15.9252 14.8624C15.9847 14.7681 16.0379 14.67 16.0845 14.5687C16.1179 14.5003 16.1334 14.4246 16.1296 14.3487C16.1257 14.2727 16.1027 14.199 16.0627 14.1343C16.0033 14.0093 15.5033 12.7906 15.2939 12.2968C15.0845 11.8031 14.8783 11.8843 14.7345 11.8843C14.5908 11.8843 14.422 11.8624 14.2564 11.8624C14.1299 11.8659 14.0055 11.8954 13.891 11.9492C13.7764 12.003 13.6742 12.0798 13.5908 12.1749C13.3083 12.4386 13.0844 12.7588 12.9336 13.1147C12.7829 13.4706 12.7087 13.8541 12.7158 14.2406C12.7205 14.5263 12.7636 14.8101 12.8439 15.0843C13.0407 15.7028 13.342 16.2831 13.7345 16.7999C13.8595 16.9656 15.4627 19.5468 17.997 20.5499C20.5314 21.5531 20.5345 21.2124 20.9939 21.1749C21.4533 21.1374 22.4689 20.578 22.6783 19.9999C22.8404 19.6297 22.8904 19.2201 22.822 18.8218C22.7595 18.7093 22.5939 18.6468 22.3439 18.5249Z" fill="white"></path></svg> 